Coordinates
version=1
nRows=9
nColumns=24
inDegrees=yes

Units are S.I. units (second, meters, Newtons, ...)
Angles are in degrees.

endheader
time	pelvis_tilt	pelvis_list	pelvis_rotation	pelvis_tx	pelvis_ty	pelvis_tz	hip_flexion_r	hip_adduction_r	hip_rotation_r	knee_angle_r	ankle_angle_r	subtalar_angle_r	mtp_angle_r	hip_flexion_l	hip_adduction_l	hip_rotation_l	knee_angle_l	ankle_angle_l	subtalar_angle_l	mtp_angle_l	lumbar_extension	lumbar_bending	lumbar_rotation
      2.13000000	     -2.05872102	     -3.60350691	      0.15761156	      0.29787576	      1.01319799	      0.01975587	      6.31331116	      4.75604261	      2.04525420	     -3.08569215	      0.50810680	      0.00000000	      0.00000000	     18.67050981	     -7.02338657	      0.14867953	    -62.61841858	      1.70139797	      0.00000000	      0.00000000	    -13.04787242	     13.42043312	      0.78370353
      2.14000000	     -2.22354733	     -3.41069891	      0.17773162	      0.29733976	      1.01386302	      0.02010359	      5.86752839	      4.54757808	      1.91980409	     -2.73047630	      0.55363195	      0.00000000	      0.00000000	     19.41784584	     -6.56196712	      0.56619854	    -61.65283226	      2.61018760	      0.00000000	      0.00000000	    -12.85477775	     13.31799216	      0.81364432
      2.15000000	     -2.39196953	     -3.23644905	      0.21977907	      0.29671066	      1.01441773	      0.02044001	      5.44330625	      4.35951024	      1.75548298	     -2.39873779	      0.58737949	      0.00000000	      0.00000000	     20.12575226	     -6.13310248	      0.98524007	    -60.49003169	      3.43991923	      0.00000000	      0.00000000	    -12.66856657	     13.22186935	      0.81796962
      2.16000000	     -2.49595053	     -3.25128002	      0.14393168	      0.29601692	      1.01499337	      0.02088793	      5.06757493	      4.39015866	      1.67645954	     -2.31742806	      0.71493211	      0.00000000	      0.00000000	     20.73079236	     -6.01567227	      1.22505003	    -59.17101905	      3.78961829	      0.00000000	      0.00000000	    -12.61127979	     13.32054357	      1.01653733
      2.17000000	     -2.72715064	     -2.97559300	      0.26137293	      0.29534201	      1.01520370	      0.02093133	      4.62509754	      4.06263351	      1.53470894	     -1.80921152	      0.82167380	      0.00000000	      0.00000000	     21.40781969	     -5.47866425	      1.63521885	    -57.68095402	      4.95239048	      0.00000000	      0.00000000	    -12.33371678	     13.12719602	      0.89282908
      2.18000000	     -2.84558289	     -3.03214651	      0.23098906	      0.29451061	      1.01550904	      0.02133727	      4.26660560	      4.13636242	      1.45274134	     -1.72487465	      0.96595235	      0.00000000	      0.00000000	     21.96684580	     -5.47681123	      1.81402065	    -56.07103995	      5.21844564	      0.00000000	      0.00000000	    -12.27651857	     13.24892975	      1.04954176
      2.19000000	     -2.99948224	     -3.05489502	      0.23694194	      0.29369354	      1.01565722	      0.02163720	      3.89660821	      4.16665070	      1.39111278	     -1.55132318	      1.14907426	      0.00000000	      0.00000000	     22.50635241	     -5.44899557	      1.98148540	    -54.30038255	      5.60801262	      0.00000000	      0.00000000	    -12.16568034	     13.33614851	      1.14467063
      2.20000000	     -3.06532403	     -2.67189059	      0.41204846	      0.29299547	      1.01584144	      0.02142349	      3.20976564	      3.72015923	      1.22534847	     -0.89954981	      1.19765037	      0.00000000	      0.00000000	     22.80812514	     -4.88239351	      2.28423194	    -52.25027740	      6.32711419	      0.00000000	      0.00000000	    -12.09193670	     13.01360606	      0.96066460
      2.21000000	     -3.21215017	     -2.79598498	      0.42052742	      0.29206408	      1.01574733	      0.02165287	      2.87105295	      3.86675146	      1.17602647	     -0.79035306	      1.39866322	      0.00000000	      0.00000000	     23.30646522	     -5.04589838	      2.36110297	    -50.31777363	      6.49753455	      0.00000000	      0.00000000	    -12.01954799	     13.19877244	      1.07393386
